<svg width="3048" height="1663" viewBox="0 0 3048 1663" fill="none" xmlns="http://www.w3.org/2000/svg">
<path d="M3019.59 1663C3037.69 1605.42 3047.47 1544.15 3047.47 1480.59C3047.47 1203.26 2861.64 969.35 2607.72 896.55C2625.71 852.99 2635.65 805.27 2635.65 755.22C2635.65 550.56 2469.74 384.65 2265.08 384.65C2229.9 384.65 2195.87 389.55 2163.63 398.71C2026.62 178.28 1782.3 31.4901 1503.66 31.4901C1143.34 31.4901 840.37 276.92 752.71 609.71C335.11 622.59 0.52002 965.12 0.52002 1385.84C0.52002 1483.5 18.6 1576.92 51.5 1663.01H3019.59V1663Z" fill="#56B1DA"/>
<path d="M1010.7 1126H366.96L635.04 661.63L688.83 568.48L742.65 661.69L783.66 732.76L1010.7 1126Z" fill="#5C99B5"/>
<path d="M742.65 661.69L731.7 672.64L709.14 650.08L687.27 671.95L663.63 648.31L643.89 671.35L635.04 661.63L688.83 568.48L742.65 661.69Z" fill="white"/>
<path d="M556.54 1328.13H69.8L272.5 977.01L313.17 906.58L353.86 977.06L384.87 1030.79L556.54 1328.13Z" fill="#75A4BA"/>
<path d="M353.86 977.06L345.58 985.34L328.53 968.28L311.99 984.81L294.12 966.94L279.19 984.36L272.5 977.01L313.17 906.58L353.86 977.06Z" fill="white"/>
<path d="M1148.9 1185.34H505.13L539.39 1126L766.43 732.76L809.78 657.67L827.03 627.82L845.03 658.96L1148.9 1185.34Z" fill="#75A4BA"/>
<path d="M845.03 658.96L828.05 675.94L809.78 657.67L827.03 627.82L845.03 658.96Z" fill="white"/>
<path d="M1058.99 1149.16L298 1165.91L437.15 853.85H931.76L1058.99 1149.16Z" fill="#5790AB"/>
<path d="M2362.1 1453.72H685.9C654.92 1453.72 629.81 1428.61 629.81 1397.63C629.81 1366.65 654.92 1341.54 685.9 1341.54H2362.1C2393.08 1341.54 2418.19 1366.65 2418.19 1397.63C2418.19 1428.61 2393.07 1453.72 2362.1 1453.72Z" fill="#458FB0"/>
<path d="M188.59 287.02C117.22 287.02 57.04 334.88 38.38 400.26H338.8C320.14 334.89 259.95 287.02 188.59 287.02Z" fill="white"/>
<path d="M598.38 287.02C527.01 287.02 466.83 334.88 448.17 400.26H748.59C729.94 334.89 669.75 287.02 598.38 287.02Z" fill="white"/>
<path d="M403.15 238.51C301.21 238.51 215.24 306.88 188.59 400.26H617.71C591.05 306.88 505.09 238.51 403.15 238.51Z" fill="white"/>
<path d="M580.6 814.21C555.62 814.21 534.55 830.96 528.02 853.85H633.18C626.65 830.97 605.58 814.21 580.6 814.21Z" fill="#3D7E9C"/>
<path d="M512.26 797.23C476.58 797.23 446.48 821.16 437.15 853.85H587.36C578.04 821.16 547.94 797.23 512.26 797.23Z" fill="#3D7E9C"/>
<path d="M860.16 814.21C835.18 814.21 814.11 830.96 807.58 853.85H912.74C906.21 830.97 885.15 814.21 860.16 814.21Z" fill="#3D7E9C"/>
<path d="M791.82 797.23C756.14 797.23 726.04 821.16 716.71 853.85H866.92C857.6 821.16 827.51 797.23 791.82 797.23Z" fill="#3D7E9C"/>
<path d="M511.77 1093.91C349.1 1093.91 211.92 1203.01 169.39 1352.03H854.15C811.62 1203.01 674.44 1093.91 511.77 1093.91Z" fill="#3D7E9C"/>
<path d="M1445.83 1093.91C1283.16 1093.91 1145.98 1203.01 1103.45 1352.03H1788.21C1745.68 1203.01 1608.5 1093.91 1445.83 1093.91Z" fill="#3D7E9C"/>
<path d="M1000.82 983.34C768.47 983.34 572.52 1139.18 511.77 1352.03H1489.88C1429.13 1139.17 1233.18 983.34 1000.82 983.34Z" fill="#3D7E9C"/>
<path d="M2327.88 1412.9C2286.4 1412.9 2251.42 1440.72 2240.58 1478.72H2415.19C2404.34 1440.72 2369.36 1412.9 2327.88 1412.9Z" fill="#2B596E"/>
<path d="M2452.59 1384.71C2393.34 1384.71 2343.38 1424.45 2327.89 1478.72H2577.3C2561.8 1424.44 2511.84 1384.71 2452.59 1384.71Z" fill="#2B596E"/>
<path opacity="0.25" d="M1968.72 1397.63H1542.16L1477.92 649.61H2032.96L1968.72 1397.63Z" fill="white"/>
<path d="M696.33 853.85H649.83V854.47C660.14 856.85 667.83 866.07 667.83 877.1V975.85V983.97V1036.73C667.83 1041.49 671.69 1045.35 676.45 1045.35H677.22C681.98 1045.35 685.84 1041.49 685.84 1036.73V988.47C685.84 985.98 687.85 983.97 690.34 983.97C692.83 983.97 694.84 985.98 694.84 988.47V1054.73C694.84 1059.49 698.7 1063.35 703.46 1063.35H704.23C708.99 1063.35 712.85 1059.49 712.85 1054.73V988.86C712.85 986.16 715.04 983.98 717.73 983.98C720.43 983.98 722.61 986.17 722.61 988.86V1026.23C722.61 1030.99 726.47 1034.85 731.23 1034.85C735.99 1034.85 739.85 1030.99 739.85 1026.23V983.97V975.85V897.35C739.83 873.33 720.35 853.85 696.33 853.85Z" fill="#D0F1F2"/>
<path d="M1379.42 44.39C1188.53 44.39 1033.78 199.14 1033.78 390.03V1262.2H1077.28V390.03C1077.28 223.43 1212.82 87.89 1379.42 87.89C1546.02 87.89 1681.56 223.43 1681.56 390.03H1725.06C1725.05 199.14 1570.31 44.39 1379.42 44.39Z" fill="#292B3B"/>
<path d="M1379.42 0.890015C1164.85 0.890015 990.28 175.46 990.28 390.03V1262.2H1033.78V390.03C1033.78 199.14 1188.53 44.39 1379.42 44.39C1570.31 44.39 1725.06 199.14 1725.06 390.03H1768.56C1768.55 175.46 1593.99 0.890015 1379.42 0.890015Z" fill="#40435C"/>
<path d="M1129.85 1404.34H930V1123.84C930 1094.85 953.51 1071.34 982.5 1071.34H1077.35C1106.34 1071.34 1129.85 1094.85 1129.85 1123.84V1404.34Z" fill="#40435C"/>
<path d="M981 1279.84C1027.39 1279.84 1065 1242.23 1065 1195.84C1065 1149.45 1027.39 1111.84 981 1111.84C934.608 1111.84 897 1149.45 897 1195.84C897 1242.23 934.608 1279.84 981 1279.84Z" fill="#292B3B"/>
<path d="M1000.37 1242.5C1026.13 1231.82 1038.37 1202.29 1027.7 1176.53C1017.03 1150.76 987.49 1138.53 961.727 1149.2C935.964 1159.87 923.73 1189.41 934.402 1215.17C945.073 1240.93 974.609 1253.17 1000.37 1242.5Z" fill="#D0F1F2"/>
</svg>
