<svg width="155" height="48" viewBox="0 0 155 48" fill="none" xmlns="http://www.w3.org/2000/svg">
<path d="M82.0902 43.16C79.4802 44.6 77 46.16 74.65 47.82C72.86 45.56 70.9202 43.37 68.8202 41.26C62.7202 35.09 55.3701 29.53 46.9601 24.99C31.5501 16.67 15.2802 13.21 0.84021 14.18C15.3502 -0.45003 38.2802 -4.48002 57.3202 5.80998C66.5302 10.78 73.43 18.33 77.63 27.1C80.04 32.14 81.5602 37.58 82.0902 43.16Z" fill="#2B596E"/>
<path d="M154.94 36.21C141.35 31.23 124.75 30 107.63 33.66C98.28 35.66 89.6602 38.93 82.0802 43.15C79.4702 44.59 76.99 46.15 74.64 47.81C72.85 45.55 70.9102 43.36 68.8102 41.25C70.8902 36.04 73.8702 31.24 77.6102 27.08C84.1002 19.85 92.8402 14.53 103.07 12.34C124.24 7.80998 145.12 18.1 154.94 36.21Z" fill="#2B596E"/>
</svg>
