<svg width="832" height="367" viewBox="0 0 832 367" fill="none" xmlns="http://www.w3.org/2000/svg">
<g clip-path="url(#clip0)">
<path d="M410.663 328.4C462.65 328.447 506.527 291.808 520.158 241.722L301.297 241.524C314.859 291.634 358.675 328.353 410.663 328.4Z" fill="black"/>
<path d="M112.126 328.131C164.113 328.178 207.99 291.538 221.621 241.452L2.76025 241.255C16.3215 291.365 60.1381 328.084 112.126 328.131Z" fill="black"/>
<path d="M254.321 365.436C328.581 365.503 391.252 313.176 410.733 241.635L98.1214 241.353C117.475 312.917 180.061 365.369 254.321 365.436Z" fill="black"/>
</g>
<path d="M111.561 130.74C59.5731 130.74 15.7264 167.419 2.13557 217.517H220.997C207.395 167.419 163.548 130.74 111.561 130.74Z" fill="black"/>
<path d="M410.098 130.74C358.11 130.74 314.264 167.419 300.673 217.517H519.534C505.932 167.419 462.085 130.74 410.098 130.74Z" fill="black"/>
<path d="M267.872 93.5635C193.612 93.5635 130.984 145.947 111.561 217.505H424.173C404.76 145.959 342.132 93.5635 267.872 93.5635Z" fill="black"/>
<path d="M519.534 217.328C523.137 227.75 521.411 237.857 520.097 241.607L517.282 243.976C347.443 247.924 6.86478 252.977 3.26157 241.607C-0.341643 230.237 1.00956 220.684 2.13556 217.328L7.76558 213.183C176.854 210.222 515.931 206.906 519.534 217.328Z" fill="black"/>
<defs>
<clipPath id="clip0">
<rect width="519.088" height="125.541" fill="white" transform="matrix(-1 -0.000902797 0.000816039 -1 521.172 366.198)"/>
</clipPath>
</defs>
</svg>
