<svg width="358" height="323" viewBox="0 0 358 323" fill="none" xmlns="http://www.w3.org/2000/svg">
<path d="M357.77 285.17L6.18005 1.22009C6.18005 1.22009 25.65 138.13 122.74 216.54C219.83 294.95 357.77 285.17 357.77 285.17Z" fill="#3AC5C9"/>
<path d="M241.21 69.8501C144.12 -8.55995 6.18005 1.22004 6.18005 1.22004L357.77 285.17C357.77 285.17 338.3 148.26 241.21 69.8501Z" fill="#5CD3D6"/>
<path d="M304 293.05L0.990112 214.36C0.990112 214.36 52.4001 295.19 136.08 316.92C219.75 338.65 304 293.05 304 293.05Z" fill="#3AC5C9"/>
<path d="M168.91 190.49C85.2402 168.76 0.990112 214.36 0.990112 214.36L304 293.05C304 293.05 252.59 212.22 168.91 190.49Z" fill="#5CD3D6"/>
</svg>
