<svg width="714" height="513" viewBox="0 0 714 513" fill="none" xmlns="http://www.w3.org/2000/svg">
<path d="M0 156C392 154 475 1 714 0V357C475 358 392 511 0 513V156Z" fill="#C5D9F5"/>
<path d="M0 176.591C392 174.981 475 51.8051 714 51V338.409C475 339.214 392 462.39 0 464V176.591Z" fill="#A6C8FA"/>
<path d="M0 188.041C392 186.669 475 81.6862 714 81V325.959C475 326.645 392 431.628 0 433V188.041Z" fill="#6998DE"/>
<path d="M0 192.526C392 191.263 475 94.6316 714 94V319.474C475 320.105 392 416.737 0 418V192.526Z" fill="#3A79D8"/>
<path d="M0 210.287C392 209.347 475 137.47 714 137V304.713C475 305.183 392 377.06 0 378V210.287Z" fill="#0E61DD"/>
<path d="M0 233.83C392 233.23 475 187.3 714 187V294.17C475 294.47 392 340.4 0 341V233.83Z" fill="#002F75"/>
</svg>
