<svg width="721" height="616" viewBox="0 0 721 616" fill="none" xmlns="http://www.w3.org/2000/svg">
<path d="M-1.38283e-05 -1.90735e-06L-1.38283e-05 608.796C-1.38283e-05 608.796 0.720994 609.001 1.32183 609.001C1.32183 609.001 31.9643 613.707 49.9893 613.912C68.0143 613.912 98.777 609.001 98.777 609.001C113.557 606.75 135.187 605.317 137.11 605.112C139.513 605.317 160.783 606.75 175.564 609.001C175.564 609.001 206.566 613.707 224.591 613.912C242.616 613.912 273.619 609.001 273.619 609.001C288.4 606.75 310.15 605.317 312.073 605.112C314.476 605.317 336.106 606.75 350.766 609.001C350.766 609.001 354.492 609.614 360.5 610.433L360.5 -1.90735e-06L-1.38283e-05 -1.90735e-06Z" fill="#04ACFF"/>
<path d="M360.5 2.08813L360.5 610.884C360.5 610.884 361.221 611.089 361.822 611.089C361.822 611.089 392.464 615.795 410.489 616C428.514 616 459.277 611.089 459.277 611.089C474.057 608.838 495.687 607.405 497.61 607.201C500.013 607.405 521.283 608.838 536.064 611.089C536.064 611.089 567.066 615.795 585.091 616C603.116 616 634.119 611.089 634.119 611.089C648.9 608.838 670.65 607.405 672.573 607.201C674.976 607.405 696.606 608.838 711.266 611.089C711.266 611.089 714.992 611.703 721 612.521L721 2.08813L360.5 2.08813Z" fill="#04ACFF"/>
<path d="M340.268 607.647C344.56 608.344 354.614 609.944 360.5 610.78L358.048 604.515L347.625 603.471L340.268 607.647Z" fill="#04ACFF"/>
</svg>
