<svg width="341" height="717" viewBox="0 0 341 717" fill="none" xmlns="http://www.w3.org/2000/svg">
<path d="M9.57023 706.87C9.16023 706.87 8.74023 706.83 8.32023 706.74C4.94023 706.05 2.76011 702.75 3.45011 699.38L12.4101 655.38C13.1001 652 16.4002 649.82 19.7702 650.51C23.1502 651.2 25.33 654.5 24.64 657.87L15.6801 701.87C15.0801 704.82 12.4802 706.87 9.57023 706.87Z" fill="white"/>
<path d="M1.76016 698.57C1.76016 698.57 -2.10984 714.63 1.76016 715.07C5.62016 715.52 61.2702 717.2 61.5902 714.62C62.7002 705.81 17.2202 697.67 12.7602 698.56C8.30016 699.46 2.27016 696.24 1.76016 698.57Z" fill="#3C6063"/>
<path d="M265.83 169.8C268.94 173.99 272.12 177.93 275.17 181.93C212.6 232.64 164.38 237.61 97.3103 195.96C87.0503 189.59 88.0201 185.44 94.1501 177.45C93.4101 175.73 93.3101 175.85 94.1501 177.45C100.28 169.45 103.48 169.31 113.9 175.76C182.06 217.97 196.38 208.94 265.83 169.8Z" fill="#3C6063"/>
<path d="M266.91 174.41C266.91 174.41 284.6 147.51 292.67 146.76C300.74 146.01 286.81 173.52 269.28 181.98L266.91 174.41Z" fill="white"/>
<path opacity="0.8" d="M222 105.05C222 72.42 281.09 0 281.09 0C281.09 0 340.18 72.41 340.18 105.05C340.18 137.68 313.72 164.14 281.09 164.14C248.46 164.14 222 137.69 222 105.05Z" fill="#D0F1F2"/>
<path d="M118.39 706.87C117.98 706.87 117.56 706.83 117.14 706.74C113.76 706.05 111.58 702.75 112.27 699.38L121.23 655.38C121.92 652 125.22 649.82 128.59 650.51C131.97 651.2 134.15 654.5 133.46 657.87L124.5 701.87C123.9 704.82 121.3 706.87 118.39 706.87Z" fill="white"/>
<path d="M132.13 681.28C125.47 681.11 118.83 680.43 112.24 679.45C132.03 573.68 147 431.71 94.0902 332.85C110.15 324.97 126.31 317.27 142.49 309.64C181.17 395.77 148.24 590.29 132.13 681.28Z" fill="#292B3B"/>
<path d="M22.6102 678.29C15.9902 676.33 9.40013 674.23 3.01013 671.61C52.5101 574.86 88.7502 422.59 80.0902 312.45C98.0902 311.52 116.12 310.92 134.13 310.4C127.38 420.62 65.4402 578.93 22.6102 678.29Z" fill="#3B3E54"/>
<path d="M110.58 698.57C110.58 698.57 106.71 714.63 110.58 715.07C114.44 715.52 170.09 717.2 170.41 714.62C171.52 705.81 126.04 697.67 121.58 698.56C117.12 699.46 111.09 696.24 110.58 698.57Z" fill="#3C6063"/>
<path d="M77.6301 343.25C86.2501 339.84 98.7001 336.54 120.41 335.61C135.16 334.99 146.74 335.5 155.8 336.72C117.82 255.21 111.24 214.59 114.68 191.71C116.39 180.29 111.93 168.84 102.78 161.83L99.2102 159.08C82.6202 146.34 58.3403 155.44 54.3603 175.99C53.0203 182.86 52.0103 190.71 51.5403 199.57C49.3803 241.68 54.9801 287.47 77.6301 343.25Z" fill="#5C9399"/>
<path d="M108.61 264.23C108.61 264.23 138.81 249.03 146.54 252.59C154.28 256.14 127.17 273.86 106.79 272.36L108.61 264.23Z" fill="white"/>
<path d="M113.03 259.79C114.57 264.94 116.16 270.11 118.12 274.94C23.1102 304.3 -44.4298 242.4 46.3102 171.59C60.1902 160.76 58.7201 165.37 65.2201 173.77C67.7001 173.64 67.4601 173.36 65.2201 173.77C71.7201 182.16 73.5302 184.5 60.5802 193.52C-24.0498 252.46 50.8801 272.76 113.03 259.79Z" fill="#3C6063"/>
<path d="M71.8403 128.39C83.2503 143.45 102.98 147.71 112.18 140.74C121.38 133.77 116.57 118.21 105.16 103.15C93.7501 88.0899 80.4902 86.0799 71.2902 93.0499C62.0902 100.02 60.4303 113.33 71.8403 128.39Z" fill="white"/>
<path d="M68.9802 138.71C71.6402 142.21 78.5103 144.06 81.0503 142.14C83.5903 140.22 82.0701 136.9 79.4201 133.39C76.7701 129.88 72.2201 128.16 69.6901 130.09C67.1401 132 66.3202 135.2 68.9802 138.71Z" fill="white"/>
<path d="M73.6901 124.59L93.4301 122.66C93.7001 125.36 95.7601 151.11 94.7601 160.81C94.0401 163.8 89.1101 165.17 83.7601 163.87C78.9501 162.7 75.4702 159.78 75.3302 157.03H75.3102C75.9202 151.21 74.6101 134.04 73.6901 124.59Z" fill="white"/>
<path d="M81.8502 133.11C84.5302 129.76 87.4601 132.39 94.7301 135.82C101.99 139.25 114.42 137.33 114.11 120.92C113.92 110.46 121.01 127.07 121.02 127.09C122.81 135.55 120.87 140.88 115.41 145.02C107.87 150.73 95.2102 150.9 83.5502 145.03C81.4602 140.96 80.0202 135.39 81.8502 133.11Z" fill="#1A1C2E"/>
<path d="M62.3901 120.45C62.3901 120.45 58.2601 108.39 63.1701 99.1899C68.0801 89.9899 83.0702 79.5699 96.3302 90.5399C96.3302 90.5399 105.03 99.1899 93.7101 108.81C82.3801 118.42 80.3502 110.49 78.2802 120.5C76.2102 130.52 67.8303 129.51 67.6103 131.65L62.3901 120.45Z" fill="#1A1C2E"/>
</svg>
