<?xml version="1.0" encoding="utf-8"?>
<!-- Generator: Adobe Illustrator 25.0.0, SVG Export Plug-In . SVG Version: 6.00 Build 0)  -->
<svg version="1.1" id="Layer_1" xmlns="http://www.w3.org/2000/svg" xmlns:xlink="http://www.w3.org/1999/xlink" x="0px" y="0px"
	 viewBox="0 0 3600 1884" style="enable-background:new 0 0 3600 1884;" xml:space="preserve">
<style type="text/css">
	.st0{fill:#81BEDA;}
	.st1{clip-path:url(#SVGID_2_);}
	.st2{fill:none;stroke:#F0F0F0;stroke-width:3;stroke-miterlimit:10;}
	.st3{fill:#56B1DA;}
	.st4{fill:#5C99B5;}
	.st5{fill:#FFFFFF;}
	.st6{fill:#75A4BA;}
	.st7{fill:#5790AB;}
	.st8{fill:#458FB0;}
	.st9{fill:#D0F1F2;}
	.st10{fill:#3D7E9C;}
	.st11{fill:#2B596E;}
	.st12{opacity:0.25;fill:#FFFFFF;}
	.st13{opacity:0.8;}
	.st14{fill:#3AC5C9;}
	.st15{fill:#5CD3D6;}
	.st16{fill:#3C6063;}
	.st17{fill:#292B3B;}
	.st18{fill:#3B3E54;}
	.st19{fill:#5C9399;}
	.st20{fill:#1A1C2E;}
	.st21{opacity:0.8;fill:#D0F1F2;}
	.st22{fill:#40435C;}
</style>
<g>
	<rect x="0" class="st0" width="3600" height="1884"/>
	<g>
		<defs>
			<rect id="SVGID_1_" width="3600" height="1884"/>
		</defs>
		<clipPath id="SVGID_2_">
			<use xlink:href="#SVGID_1_"  style="overflow:visible;"/>
		</clipPath>
		<g class="st1">
			<line class="st2" x1="1973.85" y1="-1929.64" x2="-1000.33" y2="1044.55"/>
			<line class="st2" x1="1996.96" y1="-1906.53" x2="-977.23" y2="1067.66"/>
			<line class="st2" x1="2020.06" y1="-1883.43" x2="-954.13" y2="1090.76"/>
			<line class="st2" x1="2043.16" y1="-1860.33" x2="-931.02" y2="1113.86"/>
			<line class="st2" x1="2066.27" y1="-1837.22" x2="-907.92" y2="1136.96"/>
			<line class="st2" x1="2089.37" y1="-1814.12" x2="-884.82" y2="1160.07"/>
			<line class="st2" x1="2112.47" y1="-1791.02" x2="-861.72" y2="1183.17"/>
			<line class="st2" x1="2135.57" y1="-1767.91" x2="-838.61" y2="1206.27"/>
			<line class="st2" x1="2158.68" y1="-1744.81" x2="-815.51" y2="1229.38"/>
			<line class="st2" x1="2181.78" y1="-1721.71" x2="-792.41" y2="1252.48"/>
			<line class="st2" x1="2204.88" y1="-1698.61" x2="-769.3" y2="1275.58"/>
			<line class="st2" x1="2227.99" y1="-1675.5" x2="-746.2" y2="1298.69"/>
			<line class="st2" x1="2251.09" y1="-1652.4" x2="-723.1" y2="1321.79"/>
			<line class="st2" x1="2274.19" y1="-1629.3" x2="-699.99" y2="1344.89"/>
			<line class="st2" x1="2297.3" y1="-1606.19" x2="-676.89" y2="1367.99"/>
			<line class="st2" x1="2320.4" y1="-1583.09" x2="-653.79" y2="1391.1"/>
			<line class="st2" x1="2343.5" y1="-1559.99" x2="-630.68" y2="1414.2"/>
			<line class="st2" x1="2366.6" y1="-1536.88" x2="-607.58" y2="1437.3"/>
			<line class="st2" x1="2389.71" y1="-1513.78" x2="-584.48" y2="1460.41"/>
			<line class="st2" x1="2412.81" y1="-1490.68" x2="-561.38" y2="1483.51"/>
			<line class="st2" x1="2435.91" y1="-1467.58" x2="-538.27" y2="1506.61"/>
			<line class="st2" x1="2459.02" y1="-1444.47" x2="-515.17" y2="1529.71"/>
			<line class="st2" x1="2482.12" y1="-1421.37" x2="-492.07" y2="1552.82"/>
			<line class="st2" x1="2505.22" y1="-1398.27" x2="-468.96" y2="1575.92"/>
			<line class="st2" x1="2528.33" y1="-1375.16" x2="-445.86" y2="1599.02"/>
			<line class="st2" x1="2551.43" y1="-1352.06" x2="-422.76" y2="1622.13"/>
			<line class="st2" x1="2574.53" y1="-1328.96" x2="-399.65" y2="1645.23"/>
			<line class="st2" x1="2597.63" y1="-1305.85" x2="-376.55" y2="1668.33"/>
			<line class="st2" x1="2620.74" y1="-1282.75" x2="-353.45" y2="1691.44"/>
			<line class="st2" x1="2643.84" y1="-1259.65" x2="-330.35" y2="1714.54"/>
			<line class="st2" x1="2666.94" y1="-1236.55" x2="-307.24" y2="1737.64"/>
			<line class="st2" x1="2690.05" y1="-1213.44" x2="-284.14" y2="1760.74"/>
			<line class="st2" x1="2713.15" y1="-1190.34" x2="-261.04" y2="1783.85"/>
			<line class="st2" x1="2736.25" y1="-1167.24" x2="-237.93" y2="1806.95"/>
			<line class="st2" x1="2759.36" y1="-1144.13" x2="-214.83" y2="1830.05"/>
			<line class="st2" x1="2782.46" y1="-1121.03" x2="-191.73" y2="1853.16"/>
			<line class="st2" x1="2805.56" y1="-1097.93" x2="-168.63" y2="1876.26"/>
			<line class="st2" x1="2828.66" y1="-1074.82" x2="-145.52" y2="1899.36"/>
			<line class="st2" x1="2851.77" y1="-1051.72" x2="-122.42" y2="1922.47"/>
			<line class="st2" x1="2874.87" y1="-1028.62" x2="-99.32" y2="1945.57"/>
			<line class="st2" x1="2897.97" y1="-1005.52" x2="-76.21" y2="1968.67"/>
			<line class="st2" x1="2921.08" y1="-982.41" x2="-53.11" y2="1991.78"/>
			<line class="st2" x1="2944.18" y1="-959.31" x2="-30.01" y2="2014.88"/>
			<line class="st2" x1="2967.28" y1="-936.21" x2="-6.9" y2="2037.98"/>
			<line class="st2" x1="2990.39" y1="-913.1" x2="16.2" y2="2061.08"/>
			<line class="st2" x1="3013.49" y1="-890" x2="39.3" y2="2084.19"/>
			<line class="st2" x1="3036.59" y1="-866.9" x2="62.4" y2="2107.29"/>
			<line class="st2" x1="3059.69" y1="-843.79" x2="85.51" y2="2130.39"/>
			<line class="st2" x1="3082.8" y1="-820.69" x2="108.61" y2="2153.5"/>
			<line class="st2" x1="3105.9" y1="-797.59" x2="131.71" y2="2176.6"/>
			<line class="st2" x1="3129" y1="-774.49" x2="154.82" y2="2199.7"/>
			<line class="st2" x1="3152.11" y1="-751.38" x2="177.92" y2="2222.81"/>
			<line class="st2" x1="3175.21" y1="-728.28" x2="201.02" y2="2245.91"/>
			<line class="st2" x1="3198.31" y1="-705.18" x2="224.13" y2="2269.01"/>
			<line class="st2" x1="3221.42" y1="-682.07" x2="247.23" y2="2292.11"/>
			<line class="st2" x1="3244.52" y1="-658.97" x2="270.33" y2="2315.22"/>
			<line class="st2" x1="3267.62" y1="-635.87" x2="293.43" y2="2338.32"/>
			<line class="st2" x1="3290.72" y1="-612.76" x2="316.54" y2="2361.42"/>
			<line class="st2" x1="3313.83" y1="-589.66" x2="339.64" y2="2384.53"/>
			<line class="st2" x1="3336.93" y1="-566.56" x2="362.74" y2="2407.63"/>
			<line class="st2" x1="3360.03" y1="-543.46" x2="385.85" y2="2430.73"/>
			<line class="st2" x1="3383.14" y1="-520.35" x2="408.95" y2="2453.84"/>
			<line class="st2" x1="3406.24" y1="-497.25" x2="432.05" y2="2476.94"/>
			<line class="st2" x1="3429.34" y1="-474.15" x2="455.16" y2="2500.04"/>
			<line class="st2" x1="3452.45" y1="-451.04" x2="478.26" y2="2523.14"/>
			<line class="st2" x1="3475.55" y1="-427.94" x2="501.36" y2="2546.25"/>
			<line class="st2" x1="3498.65" y1="-404.84" x2="524.46" y2="2569.35"/>
			<line class="st2" x1="3521.75" y1="-381.73" x2="547.57" y2="2592.45"/>
			<line class="st2" x1="3544.86" y1="-358.63" x2="570.67" y2="2615.56"/>
			<line class="st2" x1="3567.96" y1="-335.53" x2="593.77" y2="2638.66"/>
			<line class="st2" x1="3591.06" y1="-312.43" x2="616.88" y2="2661.76"/>
			<line class="st2" x1="3614.17" y1="-289.32" x2="639.98" y2="2684.86"/>
			<line class="st2" x1="3637.27" y1="-266.22" x2="663.08" y2="2707.97"/>
			<line class="st2" x1="3660.37" y1="-243.12" x2="686.19" y2="2731.07"/>
			<line class="st2" x1="3683.48" y1="-220.01" x2="709.29" y2="2754.17"/>
			<line class="st2" x1="3706.58" y1="-196.91" x2="732.39" y2="2777.28"/>
			<line class="st2" x1="3729.68" y1="-173.81" x2="755.49" y2="2800.38"/>
			<line class="st2" x1="3752.78" y1="-150.7" x2="778.6" y2="2823.48"/>
			<line class="st2" x1="3775.89" y1="-127.6" x2="801.7" y2="2846.59"/>
			<line class="st2" x1="3798.99" y1="-104.5" x2="824.8" y2="2869.69"/>
			<line class="st2" x1="3822.09" y1="-81.4" x2="847.91" y2="2892.79"/>
			<line class="st2" x1="3845.2" y1="-58.29" x2="871.01" y2="2915.9"/>
			<line class="st2" x1="3868.3" y1="-35.19" x2="894.11" y2="2939"/>
			<line class="st2" x1="3891.4" y1="-12.09" x2="917.22" y2="2962.1"/>
			<line class="st2" x1="3914.51" y1="11.02" x2="940.32" y2="2985.2"/>
			<line class="st2" x1="3937.61" y1="34.12" x2="963.42" y2="3008.31"/>
			<line class="st2" x1="3960.71" y1="57.22" x2="986.52" y2="3031.41"/>
			<line class="st2" x1="3983.81" y1="80.33" x2="1009.63" y2="3054.51"/>
			<line class="st2" x1="4006.92" y1="103.43" x2="1032.73" y2="3077.62"/>
			<line class="st2" x1="4030.02" y1="126.53" x2="1055.83" y2="3100.72"/>
			<line class="st2" x1="4053.12" y1="149.63" x2="1078.94" y2="3123.82"/>
			<line class="st2" x1="4076.23" y1="172.74" x2="1102.04" y2="3146.93"/>
			<line class="st2" x1="4099.33" y1="195.84" x2="1125.14" y2="3170.03"/>
			<line class="st2" x1="4122.43" y1="218.94" x2="1148.25" y2="3193.13"/>
			<line class="st2" x1="4145.54" y1="242.05" x2="1171.35" y2="3216.23"/>
			<line class="st2" x1="4168.64" y1="265.15" x2="1194.45" y2="3239.34"/>
			<line class="st2" x1="4191.74" y1="288.25" x2="1217.55" y2="3262.44"/>
			<line class="st2" x1="4214.84" y1="311.36" x2="1240.66" y2="3285.54"/>
			<line class="st2" x1="4237.95" y1="334.46" x2="1263.76" y2="3308.65"/>
			<line class="st2" x1="4261.05" y1="357.56" x2="1286.86" y2="3331.75"/>
			<line class="st2" x1="4284.15" y1="380.66" x2="1309.97" y2="3354.85"/>
			<line class="st2" x1="4307.26" y1="403.77" x2="1333.07" y2="3377.96"/>
			<line class="st2" x1="4330.36" y1="426.87" x2="1356.17" y2="3401.06"/>
			<line class="st2" x1="4353.46" y1="449.97" x2="1379.28" y2="3424.16"/>
			<line class="st2" x1="4376.57" y1="473.08" x2="1402.38" y2="3447.26"/>
			<line class="st2" x1="4399.67" y1="496.18" x2="1425.48" y2="3470.37"/>
			<line class="st2" x1="4422.77" y1="519.28" x2="1448.58" y2="3493.47"/>
			<line class="st2" x1="4445.87" y1="542.39" x2="1471.69" y2="3516.57"/>
			<line class="st2" x1="4468.98" y1="565.49" x2="1494.79" y2="3539.68"/>
			<line class="st2" x1="4492.08" y1="588.59" x2="1517.89" y2="3562.78"/>
			<line class="st2" x1="4515.18" y1="611.69" x2="1541" y2="3585.88"/>
			<line class="st2" x1="4538.29" y1="634.8" x2="1564.1" y2="3608.99"/>
			<line class="st2" x1="4561.39" y1="657.9" x2="1587.2" y2="3632.09"/>
			<line class="st2" x1="4574.33" y1="691.03" x2="1600.14" y2="3665.22"/>
			<line class="st2" x1="4587.27" y1="724.17" x2="1613.08" y2="3698.36"/>
			<line class="st2" x1="4600.21" y1="757.3" x2="1626.02" y2="3731.49"/>
			<line class="st2" x1="4613.15" y1="790.44" x2="1638.96" y2="3764.62"/>
			<line class="st2" x1="4626.09" y1="823.57" x2="1651.9" y2="3797.76"/>
		</g>
	</g>
	<path class="st3" d="M3295.59,1884c18.1-57.58,27.88-118.85,27.88-182.41c0-277.33-185.83-511.24-439.75-584.04
		c17.99-43.56,27.93-91.28,27.93-141.33c0-204.66-165.91-370.57-370.57-370.57c-35.18,0-69.21,4.9-101.45,14.06
		c-137.01-220.43-381.33-367.22-659.97-367.22c-360.32,0-663.29,245.43-750.95,578.22c-417.6,12.88-752.19,355.41-752.19,776.13
		c0,97.66,18.08,191.08,50.98,277.17H3295.59z"/>
	<g>
		<polygon class="st4" points="1286.7,1347 642.96,1347 911.04,882.63 964.83,789.48 1018.65,882.69 1059.66,953.76 		"/>
		<polygon class="st5" points="1018.65,882.69 1007.7,893.64 985.14,871.08 963.27,892.95 939.63,869.31 919.89,892.35 
			911.04,882.63 964.83,789.48 		"/>
	</g>
	<g>
		<polygon class="st6" points="832.54,1549.13 345.8,1549.13 548.5,1198.01 589.17,1127.58 629.86,1198.06 660.87,1251.79 		"/>
		<polygon class="st5" points="629.86,1198.06 621.58,1206.34 604.53,1189.28 587.99,1205.81 570.12,1187.94 555.19,1205.36 
			548.5,1198.01 589.17,1127.58 		"/>
	</g>
	<g>
		<polygon class="st6" points="1424.9,1406.34 781.13,1406.34 815.39,1347 1042.43,953.76 1085.78,878.67 1103.03,848.82 
			1121.03,879.96 		"/>
		<polygon class="st5" points="1121.03,879.96 1104.05,896.94 1085.78,878.67 1103.03,848.82 		"/>
	</g>
	<polygon class="st7" points="1334.99,1370.16 574,1386.91 713.15,1074.85 1207.76,1074.85 	"/>
	<path class="st8" d="M2638.1,1674.72H961.9c-30.98,0-56.09-25.11-56.09-56.09v0c0-30.98,25.11-56.09,56.09-56.09H2638.1
		c30.98,0,56.09,25.11,56.09,56.09v0C2694.19,1649.61,2669.07,1674.72,2638.1,1674.72z"/>
	<g>
		<path class="st9" d="M425.57,351.01c-115.53,0-212.96,77.49-243.17,183.32h486.34C638.53,428.49,541.1,351.01,425.57,351.01z"/>
		<path class="st9" d="M1088.97,351.01c-115.53,0-212.96,77.49-243.17,183.32h486.34C1301.94,428.49,1204.5,351.01,1088.97,351.01z"
			/>
		<path class="st9" d="M772.91,272.47c-165.02,0-304.19,110.68-347.34,261.85h694.68C1077.11,383.15,937.94,272.47,772.91,272.47z"
			/>
	</g>
	<g>
		<path class="st5" d="M464.59,508.02c-71.37,0-131.55,47.86-150.21,113.24H614.8C596.14,555.89,535.95,508.02,464.59,508.02z"/>
		<path class="st5" d="M874.38,508.02c-71.37,0-131.55,47.86-150.21,113.24h300.42C1005.94,555.89,945.75,508.02,874.38,508.02z"/>
		<path class="st5" d="M679.15,459.51c-101.94,0-187.91,68.37-214.56,161.75h429.12C867.05,527.88,781.09,459.51,679.15,459.51z"/>
	</g>
	<g>
		<path class="st9" d="M1261.17,704.83c-46.17,0-85.11,30.97-97.18,73.27h194.37C1346.28,735.8,1307.34,704.83,1261.17,704.83z"/>
		<path class="st9" d="M1526.3,704.83c-46.17,0-85.11,30.97-97.18,73.27h194.37C1611.41,735.8,1572.47,704.83,1526.3,704.83z"/>
		<path class="st9" d="M1399.99,673.44c-65.95,0-121.57,44.23-138.82,104.65h277.63C1521.56,717.68,1465.94,673.44,1399.99,673.44z"
			/>
	</g>
	<g>
		<path class="st10" d="M856.6,1035.21c-24.98,0-46.05,16.75-52.58,39.64h105.16C902.65,1051.97,881.58,1035.21,856.6,1035.21z"/>
		<path class="st10" d="M788.26,1018.23c-35.68,0-65.78,23.93-75.11,56.62h150.21C854.04,1042.16,823.94,1018.23,788.26,1018.23z"/>
	</g>
	<g>
		<path class="st10" d="M1136.16,1035.21c-24.98,0-46.05,16.75-52.58,39.64h105.16C1182.21,1051.97,1161.15,1035.21,1136.16,1035.21
			z"/>
		<path class="st10" d="M1067.82,1018.23c-35.68,0-65.78,23.93-75.11,56.62h150.21C1133.6,1042.16,1103.51,1018.23,1067.82,1018.23z
			"/>
	</g>
	<g>
		<path class="st10" d="M2776.81,667.74c-81.77,0-150.73,54.84-172.11,129.75h344.23C2927.55,722.59,2858.58,667.74,2776.81,667.74z
			"/>
		<path class="st10" d="M3246.36,667.74c-81.77,0-150.73,54.84-172.11,129.75h344.23C3397.09,722.59,3328.13,667.74,3246.36,667.74z
			"/>
		<path class="st10" d="M3022.66,612.16c-116.8,0-215.31,78.34-245.84,185.34h491.69C3237.96,690.5,3139.46,612.16,3022.66,612.16z"
			/>
	</g>
	<circle class="st5" cx="2155.26" cy="1246.18" r="31.61"/>
	<g>
		<path class="st10" d="M787.77,1314.91c-162.67,0-299.85,109.1-342.38,258.12h684.76
			C1087.62,1424.01,950.44,1314.91,787.77,1314.91z"/>
		<path class="st10" d="M1721.83,1314.91c-162.67,0-299.85,109.1-342.38,258.12h684.76
			C2021.68,1424.01,1884.5,1314.91,1721.83,1314.91z"/>
		<path class="st10" d="M1276.82,1204.34c-232.35,0-428.3,155.84-489.05,368.69h978.11
			C1705.13,1360.17,1509.18,1204.34,1276.82,1204.34z"/>
	</g>
	<g>
		<path class="st11" d="M2603.88,1633.9c-41.48,0-76.46,27.82-87.3,65.82h174.61C2680.34,1661.72,2645.36,1633.9,2603.88,1633.9z"/>
		<path class="st11" d="M2728.59,1605.71c-59.25,0-109.21,39.74-124.7,94.01h249.41C2837.8,1645.44,2787.84,1605.71,2728.59,1605.71
			z"/>
	</g>
	<polygon class="st12" points="2244.72,1618.63 1818.16,1618.63 1753.92,870.61 2308.96,870.61 	"/>
	<path class="st9" d="M972.33,1074.85h-46.5v0.62c10.31,2.38,18,11.6,18,22.63v98.75v8.12v52.76c0,4.76,3.86,8.62,8.62,8.62h0.77
		c4.76,0,8.62-3.86,8.62-8.62v-48.26c0-2.49,2.01-4.5,4.5-4.5h0c2.49,0,4.5,2.01,4.5,4.5v66.26c0,4.76,3.86,8.62,8.62,8.62h0.77
		c4.76,0,8.62-3.86,8.62-8.62v-65.87c0-2.7,2.19-4.88,4.88-4.88l0,0c2.7,0,4.88,2.19,4.88,4.88v37.37c0,4.76,3.86,8.62,8.62,8.62
		l0,0c4.76,0,8.62-3.86,8.62-8.62v-42.26v-8.12v-78.5C1015.83,1094.33,996.35,1074.85,972.33,1074.85z"/>
	<g class="st13">
		<g>
			<g>
				<rect x="1971" y="581.34" class="st9" width="12" height="825"/>
			</g>
			<g>
				<rect x="1995.05" y="581.34" class="st9" width="12" height="825"/>
			</g>
			<g>
				<rect x="2019.11" y="581.34" class="st9" width="12" height="825"/>
			</g>
		</g>
		<path class="st9" d="M1882.75,1303.47c-36.3-17.09-67.26-12.09-91.61,0.51l27.02,314.65h426.56l25.14-292.78
			c-27.35,2.54-57.9,9.76-91.86,23.49C1975.03,1431.37,1977,1347.84,1882.75,1303.47z"/>
	</g>
	<g>
		<path class="st14" d="M1859.77,1625.17l-351.59-283.95c0,0,19.47,136.91,116.56,215.32
			C1721.83,1634.95,1859.77,1625.17,1859.77,1625.17z"/>
		<path class="st15" d="M1743.21,1409.85c-97.09-78.41-235.03-68.63-235.03-68.63l351.59,283.95
			C1859.77,1625.17,1840.3,1488.26,1743.21,1409.85z"/>
	</g>
	<g>
		<path class="st14" d="M1806,1633.05l-303.01-78.69c0,0,51.41,80.83,135.09,102.56C1721.75,1678.65,1806,1633.05,1806,1633.05z"/>
		<path class="st15" d="M1670.91,1530.49c-83.67-21.73-167.92,23.87-167.92,23.87l303.01,78.69
			C1806,1633.05,1754.59,1552.22,1670.91,1530.49z"/>
	</g>
	<g>
		<g>
			<path class="st5" d="M2275.57,1614.87c-0.41,0-0.83-0.04-1.25-0.13c-3.38-0.69-5.56-3.99-4.87-7.36l8.96-44
				c0.69-3.38,3.99-5.56,7.36-4.87c3.38,0.69,5.56,3.99,4.87,7.36l-8.96,44C2281.08,1612.82,2278.48,1614.87,2275.57,1614.87z"/>
		</g>
		<path class="st16" d="M2267.76,1606.57c0,0-3.87,16.06,0,16.5c3.86,0.45,59.51,2.13,59.83-0.45c1.11-8.81-44.37-16.95-48.83-16.06
			C2274.3,1607.46,2268.27,1604.24,2267.76,1606.57z"/>
		<path class="st5" d="M2532.91,1082.41c0,0,17.69-26.9,25.76-27.65s-5.86,26.76-23.39,35.22L2532.91,1082.41z"/>
		<g>
			<path class="st16" d="M2531.83,1077.8c3.11,4.19,6.29,8.13,9.34,12.13c-62.57,50.71-110.79,55.68-177.86,14.03
				c-10.26-6.37-9.29-10.52-3.16-18.51c-0.74-1.72-0.84-1.6,0,0c6.13-8,9.33-8.14,19.75-1.69
				C2448.06,1125.97,2462.38,1116.94,2531.83,1077.8z"/>
		</g>
		<g>
			<path class="st5" d="M2384.39,1614.87c-0.41,0-0.83-0.04-1.25-0.13c-3.38-0.69-5.56-3.99-4.87-7.36l8.96-44
				c0.69-3.38,3.99-5.56,7.36-4.87c3.38,0.69,5.56,3.99,4.87,7.36l-8.96,44C2389.9,1612.82,2387.3,1614.87,2384.39,1614.87z"/>
		</g>
		<g>
			<path class="st17" d="M2398.13,1589.28c-6.66-0.17-13.3-0.85-19.89-1.83c19.79-105.77,34.76-247.74-18.15-346.6
				c16.06-7.88,32.22-15.58,48.4-23.21C2447.17,1303.77,2414.24,1498.29,2398.13,1589.28z"/>
		</g>
		<g>
			<path class="st18" d="M2288.61,1586.29c-6.62-1.96-13.21-4.06-19.6-6.68c49.5-96.75,85.74-249.02,77.08-359.16
				c18-0.93,36.03-1.53,54.04-2.05C2393.38,1328.62,2331.44,1486.93,2288.61,1586.29z"/>
		</g>
		<path class="st16" d="M2376.58,1606.57c0,0-3.87,16.06,0,16.5c3.86,0.45,59.51,2.13,59.83-0.45c1.11-8.81-44.37-16.95-48.83-16.06
			C2383.12,1607.46,2377.09,1604.24,2376.58,1606.57z"/>
		<g>
			<path class="st19" d="M2343.63,1251.25c8.62-3.41,21.07-6.71,42.78-7.64c14.75-0.62,26.33-0.11,35.39,1.11
				c-37.98-81.51-44.56-122.13-41.12-145.01c1.71-11.42-2.75-22.87-11.9-29.88l-3.57-2.75c-16.59-12.74-40.87-3.64-44.85,16.91
				c-1.34,6.87-2.35,14.72-2.82,23.58C2315.38,1149.68,2320.98,1195.47,2343.63,1251.25z"/>
		</g>
		<path class="st5" d="M2374.61,1172.23c0,0,30.2-15.2,37.93-11.64c7.74,3.55-19.37,21.27-39.75,19.77L2374.61,1172.23z"/>
		<g>
			<path class="st16" d="M2379.03,1167.79c1.54,5.15,3.13,10.32,5.09,15.15c-95.01,29.36-162.55-32.54-71.81-103.35
				c13.88-10.83,12.41-6.22,18.91,2.18c2.48-0.13,2.24-0.41,0,0c6.5,8.39,8.31,10.73-4.64,19.75
				C2241.95,1160.46,2316.88,1180.76,2379.03,1167.79z"/>
		</g>
		<path class="st5" d="M2337.84,1036.39c11.41,15.06,31.14,19.32,40.34,12.35c9.2-6.97,4.39-22.53-7.02-37.59
			c-11.41-15.06-24.67-17.07-33.87-10.1C2328.09,1008.02,2326.43,1021.33,2337.84,1036.39z"/>
		<path class="st5" d="M2334.98,1046.71c2.66,3.5,9.53,5.35,12.07,3.43c2.54-1.92,1.02-5.24-1.63-8.75s-7.2-5.23-9.73-3.3
			C2333.14,1040,2332.32,1043.2,2334.98,1046.71z"/>
		<path class="st5" d="M2339.69,1032.59l19.74-1.93c0.27,2.7,2.33,28.45,1.33,38.15c-0.72,2.99-5.65,4.36-11,3.06
			c-4.81-1.17-8.29-4.09-8.43-6.84l-0.02,0C2341.92,1059.21,2340.61,1042.04,2339.69,1032.59z"/>
		<path class="st20" d="M2347.85,1041.11c2.68-3.35,5.61-0.72,12.88,2.71c7.26,3.43,19.69,1.51,19.38-14.9
			c-0.19-10.46,6.9,6.15,6.91,6.17c1.79,8.46-0.15,13.79-5.61,17.93c-7.54,5.71-20.2,5.88-31.86,0.01
			C2347.46,1048.96,2346.02,1043.39,2347.85,1041.11z"/>
		<path class="st20" d="M2328.39,1028.45c0,0-4.13-12.06,0.78-21.26s19.9-19.62,33.16-8.65c0,0,8.7,8.65-2.62,18.27
			c-11.33,9.61-13.36,1.68-15.43,11.69c-2.07,10.02-10.45,9.01-10.67,11.15L2328.39,1028.45z"/>
	</g>
	<path class="st21" d="M2510.45,1000.72c0-32.63,59.09-105.05,59.09-105.05s59.09,72.41,59.09,105.05
		c0,32.63-26.46,59.09-59.09,59.09C2536.91,1059.81,2510.45,1033.36,2510.45,1000.72z"/>
	<g>
		<g>
			<path class="st17" d="M1655.42,265.39L1655.42,265.39c-190.89,0-345.64,154.75-345.64,345.64v872.17h43.5V611.03
				c0-166.6,135.54-302.14,302.14-302.14s302.14,135.54,302.14,302.14h43.5C2001.05,420.14,1846.31,265.39,1655.42,265.39z"/>
			<path class="st22" d="M1655.42,221.89c-214.57,0-389.14,174.57-389.14,389.14v872.17h43.5V611.03
				c0-190.89,154.75-345.64,345.64-345.64h0c190.89,0,345.64,154.75,345.64,345.64h43.5
				C2044.55,396.46,1869.99,221.89,1655.42,221.89z"/>
		</g>
		<path class="st22" d="M1405.85,1625.34H1206v-280.5c0-28.99,23.51-52.5,52.5-52.5h94.85c28.99,0,52.5,23.51,52.5,52.5V1625.34z"/>
		<circle class="st17" cx="1257" cy="1416.84" r="84"/>
		
			<ellipse transform="matrix(0.9239 -0.3827 0.3827 0.9239 -446.5176 588.8834)" class="st9" cx="1257" cy="1416.84" rx="50.49" ry="50.49"/>
	</g>
	<g>
		<path class="st11" d="M2285.83,542.52c-2.38,1.79-4.61,3.69-6.7,5.67c-2.09-1.99-4.32-3.88-6.7-5.67
			c-6.91-5.25-14.97-9.71-23.95-13.01c-16.43-6.05-33.03-7.18-47.19-4.17c12.29-16.54,34.42-23.77,54.72-16.28
			c9.82,3.62,17.72,10.12,23.12,18.2C2282.24,531.9,2284.51,537.07,2285.83,542.52z"/>
		<path class="st11" d="M2356.97,525.33c-14.16-3.01-30.76-1.88-47.19,4.17c-8.98,3.3-17.04,7.77-23.95,13.01
			c-2.38,1.79-4.61,3.69-6.7,5.67c-2.09-1.99-4.32-3.88-6.7-5.67c1.32-5.45,3.59-10.62,6.7-15.27c5.4-8.08,13.3-14.58,23.12-18.2
			C2322.55,501.56,2344.67,508.79,2356.97,525.33z"/>
	</g>
	<g>
		<path class="st11" d="M2903.02,267.86c-2.38,1.8-4.61,3.69-6.7,5.67c-2.09-1.99-4.32-3.88-6.7-5.67
			c-6.91-5.25-14.97-9.71-23.95-13.01c-16.43-6.05-33.03-7.18-47.19-4.18c12.29-16.54,34.42-23.77,54.72-16.28
			c9.82,3.62,17.72,10.12,23.12,18.2C2899.43,257.24,2901.7,262.4,2903.02,267.86z"/>
		<path class="st11" d="M2974.16,250.67c-14.16-3.01-30.76-1.88-47.19,4.18c-8.98,3.3-17.04,7.77-23.95,13.01
			c-2.38,1.8-4.61,3.69-6.7,5.67c-2.09-1.99-4.32-3.88-6.7-5.67c1.32-5.45,3.59-10.62,6.7-15.27c5.4-8.08,13.3-14.58,23.12-18.2
			C2939.74,226.9,2961.86,234.13,2974.16,250.67z"/>
	</g>
	<g>
		<path class="st11" d="M2400.09,453.16c-2.61,1.44-5.09,3-7.44,4.66c-1.79-2.26-3.73-4.45-5.83-6.56
			c-6.1-6.17-13.45-11.73-21.86-16.27c-15.41-8.32-31.68-11.78-46.12-10.81c14.51-14.63,37.44-18.66,56.48-8.37
			c9.21,4.97,16.11,12.52,20.31,21.29C2398.04,442.14,2399.56,447.58,2400.09,453.16z"/>
		<path class="st11" d="M2472.94,446.21c-13.59-4.98-30.19-6.21-47.31-2.55c-9.35,2-17.97,5.27-25.55,9.49
			c-2.61,1.44-5.09,3-7.44,4.66c-1.79-2.26-3.73-4.45-5.83-6.56c2.08-5.21,5.06-10.01,8.8-14.17c6.49-7.23,15.23-12.55,25.46-14.74
			C2442.24,417.81,2463.12,428.1,2472.94,446.21z"/>
	</g>
	<circle class="st5" cx="2155.26" cy="732.62" r="22.23"/>
	<circle class="st5" cx="2541.17" cy="1455.57" r="22.23"/>
	<circle class="st5" cx="1890.45" cy="1135.65" r="22.23"/>
	<circle class="st5" cx="1845.47" cy="1025.46" r="31.61"/>
</g>
</svg>
